<svg width="460" height="280" viewBox="0 0 460 280" fill="none" xmlns="http://www.w3.org/2000/svg">
<g clip-path="url(#clip0_57_2)">
<path d="M506 -28H-46V308H506V-28Z" fill="white"/>
<path d="M506 -28H-46V308H506V-28Z" fill="white"/>
<path d="M183.302 91.906C183.302 92.463 183.25 93.01 183.14 93.552C183.036 94.099 182.875 94.625 182.661 95.135C182.448 95.651 182.187 96.135 181.88 96.599C181.573 97.057 181.224 97.484 180.833 97.875C180.442 98.265 180.015 98.619 179.552 98.927C179.094 99.234 178.604 99.494 178.094 99.708C177.583 99.916 177.052 100.078 176.51 100.187C175.969 100.296 175.416 100.349 174.864 100.349C174.307 100.349 173.76 100.296 173.219 100.187C172.672 100.078 172.146 99.916 171.635 99.708C171.12 99.494 170.635 99.234 170.172 98.927C169.713 98.619 169.286 98.265 168.896 97.875C168.505 97.484 168.151 97.057 167.844 96.599C167.536 96.135 167.276 95.651 167.062 95.135C166.854 94.625 166.692 94.099 166.583 93.552C166.474 93.01 166.422 92.463 166.422 91.906C166.422 91.354 166.474 90.802 166.583 90.26C166.692 89.718 166.854 89.187 167.062 88.677C167.276 88.166 167.536 87.677 167.844 87.218C168.151 86.755 168.505 86.328 168.896 85.937C169.286 85.546 169.713 85.198 170.172 84.89C170.635 84.583 171.12 84.323 171.635 84.109C172.146 83.895 172.672 83.734 173.219 83.63C173.76 83.52 174.307 83.468 174.864 83.468C175.416 83.468 175.969 83.52 176.51 83.63C177.052 83.734 177.583 83.895 178.094 84.109C178.604 84.323 179.094 84.583 179.552 84.89C180.015 85.198 180.442 85.546 180.833 85.937C181.224 86.328 181.573 86.755 181.88 87.218C182.187 87.677 182.448 88.166 182.661 88.677C182.875 89.187 183.036 89.718 183.14 90.26C183.25 90.802 183.302 91.354 183.302 91.906Z" fill="black"/>
<path d="M148.177 83.468C152.838 83.468 156.62 87.244 156.62 91.906C156.62 96.567 152.838 100.349 148.177 100.349C143.515 100.349 139.734 96.567 139.734 91.906C139.734 87.244 143.515 83.468 148.177 83.468Z" fill="black"/>
<path d="M129.935 91.906C129.935 92.463 129.883 93.01 129.773 93.552C129.664 94.099 129.502 94.625 129.294 95.135C129.081 95.651 128.82 96.135 128.513 96.599C128.206 97.057 127.857 97.484 127.461 97.875C127.07 98.265 126.643 98.619 126.185 98.927C125.721 99.234 125.237 99.494 124.726 99.708C124.211 99.916 123.685 100.078 123.143 100.187C122.596 100.296 122.049 100.349 121.492 100.349C120.94 100.349 120.393 100.296 119.846 100.187C119.304 100.078 118.778 99.916 118.263 99.708C117.752 99.494 117.268 99.234 116.804 98.927C116.346 98.619 115.919 98.265 115.523 97.875C115.133 97.484 114.784 97.057 114.476 96.599C114.169 96.135 113.909 95.651 113.695 95.135C113.482 94.625 113.325 94.099 113.216 93.552C113.107 93.01 113.054 92.463 113.054 91.906C113.054 91.354 113.107 90.802 113.216 90.26C113.325 89.718 113.482 89.187 113.695 88.677C113.909 88.166 114.169 87.677 114.476 87.218C114.784 86.755 115.133 86.328 115.523 85.937C115.919 85.546 116.346 85.198 116.804 84.89C117.268 84.583 117.752 84.323 118.263 84.109C118.778 83.895 119.304 83.734 119.846 83.63C120.393 83.52 120.94 83.468 121.492 83.468C122.049 83.468 122.596 83.52 123.143 83.63C123.685 83.734 124.211 83.895 124.726 84.109C125.237 84.323 125.721 84.583 126.185 84.89C126.643 85.198 127.07 85.546 127.461 85.937C127.857 86.328 128.206 86.755 128.513 87.218C128.82 87.677 129.081 88.166 129.294 88.677C129.502 89.187 129.664 89.718 129.773 90.26C129.883 90.802 129.935 91.354 129.935 91.906Z" fill="black"/>
<path d="M337.146 83.468C341.807 83.468 345.583 87.244 345.583 91.906C345.583 96.567 341.807 100.349 337.146 100.349C332.479 100.349 328.703 96.567 328.703 91.906C328.703 87.244 332.479 83.468 337.146 83.468Z" fill="#5E64FF"/>
<path d="M310.458 83.468C315.12 83.468 318.901 87.244 318.901 91.906C318.901 96.567 315.12 100.349 310.458 100.349C305.797 100.349 302.015 96.567 302.015 91.906C302.015 87.244 305.797 83.468 310.458 83.468Z" fill="#5E64FF"/>
<path d="M283.773 83.468C288.435 83.468 292.216 87.244 292.216 91.906C292.216 96.567 288.435 100.349 283.773 100.349C279.112 100.349 275.336 96.567 275.336 91.906C275.336 87.244 279.112 83.468 283.773 83.468Z" fill="#5E64FF"/>
<mask id="mask0_57_2" style="mask-type:luminance" maskUnits="userSpaceOnUse" x="64" y="31" width="174" height="142">
<path d="M64 31H237.989V172.776H64V31Z" fill="white"/>
</mask>
<g mask="url(#mask0_57_2)">
<path d="M229.317 66.203C225.125 66.203 221.729 69.604 221.729 73.792V119.37C221.729 128.969 213.922 136.776 204.323 136.776H140.14L127.823 150.068L115.51 136.776H96.5832C86.9842 136.776 79.1771 128.969 79.1771 119.37V63.776C79.1771 54.183 86.9842 46.37 96.5832 46.37H206.192C208.213 40.802 211.172 35.677 214.88 31.193H96.5832C78.6146 31.193 64 45.813 64 63.776V119.37C64 137.339 78.6146 151.953 96.5832 151.953H108.88L127.823 172.401L146.765 151.953H204.323C222.291 151.953 236.906 137.339 236.906 119.37V73.792C236.906 69.604 233.51 66.203 229.317 66.203Z" fill="#5E64FF"/>
</g>
<mask id="mask1_57_2" style="mask-type:luminance" maskUnits="userSpaceOnUse" x="220" y="31" width="176" height="142">
<path d="M220.656 31H395V172.776H220.656V31Z" fill="white"/>
</mask>
<g mask="url(#mask1_57_2)">
<path d="M362.058 31.193H254.314C236.345 31.193 221.73 45.813 221.73 63.776V89.782C221.73 93.974 225.126 97.37 229.319 97.37C233.512 97.37 236.907 93.974 236.907 89.782V63.776C236.907 54.183 244.715 46.37 254.314 46.37H362.058C371.652 46.37 379.465 54.183 379.465 63.776V119.37C379.465 128.969 371.652 136.776 362.058 136.776H343.126L330.814 150.068L318.496 136.776H252.428C250.413 142.349 247.454 147.474 243.746 151.953H311.871L330.814 172.401L349.756 151.953H362.058C380.022 151.953 394.642 137.339 394.642 119.37V63.776C394.642 45.813 380.022 31.193 362.058 31.193Z" fill="black"/>
</g>
<path d="M75.2539 219.537C73.0716 219.537 71.1393 219.146 69.4622 218.37C67.7956 217.594 66.4883 216.474 65.5456 215.016C64.5976 213.558 64.1289 211.802 64.1289 209.745V208.62H69.3789V209.745C69.3789 211.453 69.9049 212.735 70.9622 213.578C72.0143 214.427 73.4466 214.849 75.2539 214.849C77.0872 214.849 78.4518 214.49 79.3582 213.766C80.2592 213.032 80.7122 212.099 80.7122 210.974C80.7122 210.183 80.4882 209.552 80.0452 209.078C79.5972 208.594 78.9466 208.198 78.0872 207.891C77.2383 207.573 76.2122 207.276 75.0039 206.995L74.0664 206.808C72.1341 206.38 70.4726 205.839 69.0872 205.183C67.6966 204.516 66.6289 203.641 65.8789 202.558C65.1393 201.474 64.7747 200.073 64.7747 198.349C64.7747 196.63 65.181 195.157 66.0039 193.933C66.8216 192.698 67.9831 191.755 69.4831 191.099C70.9831 190.433 72.7383 190.099 74.7539 190.099C76.7799 190.099 78.5768 190.448 80.1502 191.141C81.7332 191.823 82.9722 192.844 83.8792 194.203C84.7802 195.568 85.2332 197.276 85.2332 199.328V200.537H79.9832V199.328C79.9832 198.245 79.7752 197.38 79.3582 196.724C78.9414 196.058 78.3372 195.573 77.5456 195.266C76.7643 194.948 75.8372 194.787 74.7539 194.787C73.1393 194.787 71.9466 195.094 71.1706 195.703C70.4049 196.318 70.0247 197.141 70.0247 198.183C70.0247 198.891 70.2018 199.49 70.5664 199.974C70.9414 200.464 71.4883 200.865 72.2122 201.183C72.9466 201.505 73.8789 201.787 75.0039 202.037L75.9414 202.224C77.9518 202.657 79.7122 203.214 81.2122 203.891C82.7122 204.573 83.8792 205.469 84.7122 206.578C85.5452 207.677 85.9622 209.089 85.9622 210.808C85.9622 212.532 85.5252 214.047 84.6502 215.349C83.7752 216.657 82.5302 217.683 80.9202 218.433C79.3216 219.167 77.431 219.537 75.2539 219.537Z" fill="black"/>
<path d="M89.9263 218.974V190.662H99.8423L104.738 215.328H105.446L110.342 190.662H120.259V218.974H115.071V194.599H114.342L109.509 218.974H100.676L95.8213 194.599H95.1133V218.974H89.9263Z" fill="black"/>
<path d="M123.652 218.974L131.09 190.662H140.402L147.84 218.974H142.34L140.798 212.745H130.694L129.152 218.974H123.652ZM131.944 207.808H139.548L136.11 194.016H135.381L131.944 207.808Z" fill="black"/>
<path d="M151.226 218.974V190.662H163.518C165.294 190.662 166.841 190.974 168.164 191.599C169.482 192.224 170.502 193.11 171.226 194.245C171.961 195.37 172.331 196.698 172.331 198.224V198.724C172.331 200.422 171.924 201.797 171.122 202.849C170.315 203.891 169.315 204.657 168.122 205.141V205.87C169.206 205.927 170.039 206.302 170.622 206.995C171.216 207.677 171.518 208.589 171.518 209.724V218.974H166.185V210.474C166.185 209.839 166.018 209.318 165.685 208.912C165.351 208.511 164.789 208.308 163.997 208.308H156.56V218.974H151.226ZM156.56 203.453H162.956C164.216 203.453 165.206 203.115 165.914 202.433C166.633 201.74 166.997 200.823 166.997 199.683V199.287C166.997 198.151 166.643 197.24 165.935 196.558C165.237 195.865 164.247 195.516 162.956 195.516H156.56V203.453Z" fill="black"/>
<path d="M183.344 218.974V195.516H175.094V190.662H196.927V195.516H188.677V218.974H183.344Z" fill="black"/>
<path d="M221.587 219.537C218.087 219.537 215.306 218.568 213.254 216.62C211.212 214.662 210.191 211.865 210.191 208.224V201.433C210.191 197.797 211.212 194.995 213.254 193.037C215.306 191.078 218.087 190.099 221.587 190.099C225.071 190.099 227.759 191.052 229.65 192.953C231.551 194.86 232.504 197.469 232.504 200.787V201.016H227.254V200.62C227.254 198.943 226.785 197.568 225.858 196.495C224.926 195.412 223.504 194.87 221.587 194.87C219.712 194.87 218.233 195.453 217.15 196.62C216.066 197.776 215.525 199.349 215.525 201.349V208.308C215.525 210.266 216.066 211.839 217.15 213.016C218.233 214.183 219.712 214.766 221.587 214.766C223.504 214.766 224.926 214.224 225.858 213.141C226.785 212.047 227.254 210.677 227.254 209.037V208.308H232.504V208.87C232.504 212.177 231.551 214.782 229.65 216.683C227.759 218.589 225.071 219.537 221.587 219.537Z" fill="#5E64FF"/>
<path d="M247.876 219.537C244.319 219.537 241.485 218.568 239.376 216.62C237.277 214.662 236.23 211.865 236.23 208.224V201.433C236.23 197.797 237.277 194.995 239.376 193.037C241.485 191.078 244.319 190.099 247.876 190.099C251.428 190.099 254.256 191.078 256.355 193.037C258.465 194.995 259.522 197.797 259.522 201.433V208.224C259.522 211.865 258.465 214.662 256.355 216.62C254.256 218.568 251.428 219.537 247.876 219.537ZM247.876 214.766C249.876 214.766 251.423 214.193 252.522 213.037C253.631 211.87 254.189 210.318 254.189 208.37V201.266C254.189 199.323 253.631 197.776 252.522 196.62C251.423 195.453 249.876 194.87 247.876 194.87C245.902 194.87 244.355 195.453 243.23 196.62C242.116 197.776 241.564 199.323 241.564 201.266V208.37C241.564 210.318 242.116 211.87 243.23 213.037C244.355 214.193 245.902 214.766 247.876 214.766Z" fill="#5E64FF"/>
<path d="M264.211 218.974V190.662H274.127L279.023 215.328H279.732L284.627 190.662H294.544V218.974H289.357V194.599H288.627L283.794 218.974H274.961L270.107 194.599H269.398V218.974H264.211Z" fill="#5E64FF"/>
<path d="M299.875 218.974V190.662H311.521C313.297 190.662 314.864 191.026 316.229 191.745C317.588 192.453 318.651 193.464 319.416 194.766C320.192 196.058 320.583 197.594 320.583 199.37V199.933C320.583 201.683 320.177 203.214 319.375 204.516C318.583 205.823 317.505 206.839 316.146 207.558C314.781 208.266 313.239 208.62 311.521 208.62H305.208V218.974H299.875ZM305.208 203.766H311C312.26 203.766 313.281 203.422 314.062 202.724C314.854 202.016 315.25 201.058 315.25 199.849V199.433C315.25 198.224 314.854 197.276 314.062 196.578C313.281 195.87 312.26 195.516 311 195.516H305.208V203.766Z" fill="#5E64FF"/>
<path d="M335.298 219.537C331.741 219.537 328.907 218.568 326.798 216.62C324.699 214.662 323.652 211.865 323.652 208.224V201.433C323.652 197.797 324.699 194.995 326.798 193.037C328.907 191.078 331.741 190.099 335.298 190.099C338.85 190.099 341.678 191.078 343.777 193.037C345.886 194.995 346.944 197.797 346.944 201.433V208.224C346.944 211.865 345.886 214.662 343.777 216.62C341.678 218.568 338.85 219.537 335.298 219.537ZM335.298 214.766C337.298 214.766 338.845 214.193 339.944 213.037C341.053 211.87 341.61 210.318 341.61 208.37V201.266C341.61 199.323 341.053 197.776 339.944 196.62C338.845 195.453 337.298 194.87 335.298 194.87C333.324 194.87 331.777 195.453 330.652 196.62C329.538 197.776 328.985 199.323 328.985 201.266V208.37C328.985 210.318 329.538 211.87 330.652 213.037C331.777 214.193 333.324 214.766 335.298 214.766Z" fill="#5E64FF"/>
<path d="M361.469 219.537C359.286 219.537 357.354 219.146 355.677 218.37C354.01 217.594 352.703 216.474 351.76 215.016C350.812 213.558 350.344 211.802 350.344 209.745V208.62H355.594V209.745C355.594 211.453 356.12 212.735 357.177 213.578C358.229 214.427 359.661 214.849 361.469 214.849C363.302 214.849 364.666 214.49 365.573 213.766C366.474 213.032 366.927 212.099 366.927 210.974C366.927 210.183 366.703 209.552 366.26 209.078C365.812 208.594 365.161 208.198 364.302 207.891C363.453 207.573 362.427 207.276 361.219 206.995L360.281 206.808C358.349 206.38 356.687 205.839 355.302 205.183C353.911 204.516 352.844 203.641 352.094 202.558C351.354 201.474 350.989 200.073 350.989 198.349C350.989 196.63 351.396 195.157 352.219 193.933C353.036 192.698 354.198 191.755 355.698 191.099C357.198 190.433 358.953 190.099 360.969 190.099C362.995 190.099 364.791 190.448 366.364 191.141C367.948 191.823 369.187 192.844 370.094 194.203C370.995 195.568 371.448 197.276 371.448 199.328V200.537H366.198V199.328C366.198 198.245 365.989 197.38 365.573 196.724C365.156 196.058 364.552 195.573 363.76 195.266C362.979 194.948 362.052 194.787 360.969 194.787C359.354 194.787 358.161 195.094 357.385 195.703C356.62 196.318 356.239 197.141 356.239 198.183C356.239 198.891 356.416 199.49 356.781 199.974C357.156 200.464 357.703 200.865 358.427 201.183C359.161 201.505 360.094 201.787 361.219 202.037L362.156 202.224C364.166 202.657 365.927 203.214 367.427 203.891C368.927 204.573 370.094 205.469 370.927 206.578C371.76 207.677 372.177 209.089 372.177 210.808C372.177 212.532 371.739 214.047 370.864 215.349C369.989 216.657 368.745 217.683 367.135 218.433C365.536 219.167 363.646 219.537 361.469 219.537Z" fill="#5E64FF"/>
<path d="M376.136 218.974V190.662H394.345V195.516H381.47V202.266H393.199V207.12H381.47V214.12H394.574V218.974H376.136Z" fill="#5E64FF"/>
<path d="M122.311 242.093L119.332 232.093H121.79L123.582 238.906L125.373 232.093H127.623L124.665 242.093V247.052H122.311V242.093Z" fill="#707070"/>
<path d="M130.733 243.615C130.733 244.157 130.837 244.542 131.045 244.761C131.264 244.985 131.566 245.094 131.941 245.094C132.316 245.094 132.613 244.985 132.837 244.761C133.056 244.542 133.17 244.157 133.17 243.615V235.532C133.17 234.99 133.056 234.61 132.837 234.386C132.613 234.167 132.316 234.052 131.941 234.052C131.566 234.052 131.264 234.167 131.045 234.386C130.837 234.61 130.733 234.99 130.733 235.532V243.615ZM128.379 235.677C128.379 234.469 128.681 233.547 129.295 232.907C129.905 232.255 130.785 231.927 131.941 231.927C133.092 231.927 133.972 232.255 134.587 232.907C135.196 233.547 135.504 234.469 135.504 235.677V243.469C135.504 244.677 135.196 245.61 134.587 246.261C133.972 246.901 133.092 247.219 131.941 247.219C130.785 247.219 129.905 246.901 129.295 246.261C128.681 245.61 128.379 244.677 128.379 243.469V235.677Z" fill="#707070"/>
<path d="M139.284 232.093V243.635C139.284 244.177 139.393 244.562 139.617 244.781C139.836 244.989 140.127 245.093 140.492 245.093C140.867 245.093 141.164 244.989 141.388 244.781C141.607 244.562 141.721 244.177 141.721 243.635V232.093H143.929V243.489C143.929 244.698 143.627 245.63 143.034 246.281C142.45 246.921 141.581 247.239 140.429 247.239C139.273 247.239 138.398 246.921 137.804 246.281C137.221 245.63 136.929 244.698 136.929 243.489V232.093H139.284Z" fill="#707070"/>
<path d="M150.459 247.052C150.428 246.958 150.402 246.864 150.376 246.781C150.345 246.698 150.319 246.593 150.293 246.468C150.277 246.333 150.262 246.166 150.251 245.968C150.251 245.76 150.251 245.51 150.251 245.218V242.864C150.251 242.171 150.126 241.687 149.876 241.406C149.637 241.114 149.251 240.968 148.709 240.968H147.897V247.052H145.543V232.093H149.084C150.319 232.093 151.209 232.38 151.751 232.948C152.303 233.52 152.584 234.38 152.584 235.531V236.698C152.584 238.239 152.069 239.255 151.043 239.739C151.637 239.989 152.048 240.395 152.272 240.948C152.491 241.489 152.605 242.151 152.605 242.927V245.239C152.605 245.604 152.616 245.921 152.647 246.198C152.673 246.479 152.741 246.76 152.855 247.052H150.459ZM147.897 234.218V238.823H148.814C149.256 238.823 149.605 238.713 149.855 238.489C150.105 238.255 150.23 237.838 150.23 237.239V235.76C150.23 235.218 150.131 234.833 149.939 234.593C149.741 234.343 149.439 234.218 149.022 234.218H147.897Z" fill="#707070"/>
<path d="M162.433 242.718L164.038 232.093H167.308V247.052H165.079V236.323L163.454 247.052H161.246L159.496 236.468V247.052H157.433V232.093H160.704L162.433 242.718Z" fill="#707070"/>
<path d="M176.623 247.052H174.248L173.853 244.343H170.957L170.561 247.052H168.394L170.79 232.093H174.228L176.623 247.052ZM171.269 242.302H173.54L172.394 234.739L171.269 242.302Z" fill="#707070"/>
<path d="M177.722 232.093H180.077V247.052H177.722V232.093Z" fill="#707070"/>
<path d="M181.785 232.093H184.139V244.906H188.014V247.052H181.785V232.093Z" fill="#707070"/>
<path d="M192.573 232.093C193.807 232.093 194.698 232.38 195.239 232.948C195.791 233.52 196.073 234.38 196.073 235.531V236.073C196.073 236.838 195.948 237.468 195.698 237.968C195.458 238.468 195.078 238.838 194.552 239.073C195.187 239.323 195.64 239.729 195.906 240.281C196.166 240.823 196.302 241.489 196.302 242.281V243.51C196.302 244.666 196 245.546 195.406 246.156C194.807 246.755 193.916 247.052 192.739 247.052H189.031V232.093H192.573ZM191.385 240.323V244.906H192.739C193.125 244.906 193.427 244.802 193.635 244.593C193.844 244.385 193.948 244.005 193.948 243.448V242.135C193.948 241.442 193.828 240.968 193.594 240.718C193.354 240.458 192.969 240.323 192.427 240.323H191.385ZM191.385 234.218V238.177H192.302C192.745 238.177 193.094 238.067 193.344 237.843C193.594 237.609 193.719 237.192 193.719 236.593V235.76C193.719 235.218 193.62 234.833 193.427 234.593C193.229 234.343 192.927 234.218 192.51 234.218H191.385Z" fill="#707070"/>
<path d="M199.877 243.615C199.877 244.157 199.982 244.542 200.19 244.761C200.409 244.985 200.711 245.094 201.086 245.094C201.461 245.094 201.758 244.985 201.982 244.761C202.2 244.542 202.315 244.157 202.315 243.615V235.532C202.315 234.99 202.2 234.61 201.982 234.386C201.758 234.167 201.461 234.052 201.086 234.052C200.711 234.052 200.409 234.167 200.19 234.386C199.982 234.61 199.877 234.99 199.877 235.532V243.615ZM197.523 235.677C197.523 234.469 197.825 233.547 198.44 232.907C199.049 232.255 199.929 231.927 201.086 231.927C202.237 231.927 203.117 232.255 203.732 232.907C204.341 233.547 204.648 234.469 204.648 235.677V243.469C204.648 244.677 204.341 245.61 203.732 246.261C203.117 246.901 202.237 247.219 201.086 247.219C199.929 247.219 199.049 246.901 198.44 246.261C197.825 245.61 197.523 244.677 197.523 243.469V235.677Z" fill="#707070"/>
<path d="M214.032 232.093L211.574 239.364L214.199 247.052H211.72L209.782 241.135L207.845 247.052H205.636L208.282 239.364L205.824 232.093H208.262L210.032 237.614L211.845 232.093H214.032Z" fill="#707070"/>
<path d="M215.375 247.052V244.781H217.646V246.823L216.625 249.198H215.646L216.271 247.052H215.375Z" fill="#707070"/>
<path d="M224.831 243.615C224.831 244.157 224.935 244.542 225.143 244.761C225.362 244.985 225.664 245.094 226.039 245.094C226.414 245.094 226.711 244.985 226.935 244.761C227.153 244.542 227.268 244.157 227.268 243.615V235.532C227.268 234.99 227.153 234.61 226.935 234.386C226.711 234.167 226.414 234.052 226.039 234.052C225.664 234.052 225.362 234.167 225.143 234.386C224.935 234.61 224.831 234.99 224.831 235.532V243.615ZM222.476 235.677C222.476 234.469 222.778 233.547 223.393 232.907C224.002 232.255 224.883 231.927 226.039 231.927C227.19 231.927 228.07 232.255 228.685 232.907C229.294 233.547 229.601 234.469 229.601 235.677V243.469C229.601 244.677 229.294 245.61 228.685 246.261C228.07 246.901 227.19 247.219 226.039 247.219C224.883 247.219 224.002 246.901 223.393 246.261C222.778 245.61 222.476 244.677 222.476 243.469V235.677Z" fill="#707070"/>
<path d="M233.381 232.093V243.635C233.381 244.177 233.491 244.562 233.715 244.781C233.933 244.989 234.225 245.093 234.59 245.093C234.965 245.093 235.262 244.989 235.485 244.781C235.704 244.562 235.819 244.177 235.819 243.635V232.093H238.027V243.489C238.027 244.698 237.725 245.63 237.131 246.281C236.548 246.921 235.678 247.239 234.527 247.239C233.371 247.239 232.496 246.921 231.902 246.281C231.319 245.63 231.027 244.698 231.027 243.489V232.093H233.381Z" fill="#707070"/>
<path d="M244.557 247.052C244.526 246.958 244.5 246.864 244.474 246.781C244.442 246.698 244.416 246.593 244.39 246.468C244.375 246.333 244.359 246.166 244.349 245.968C244.349 245.76 244.349 245.51 244.349 245.218V242.864C244.349 242.171 244.224 241.687 243.974 241.406C243.734 241.114 243.349 240.968 242.807 240.968H241.995V247.052H239.64V232.093H243.182C244.416 232.093 245.307 232.38 245.849 232.948C246.401 233.52 246.682 234.38 246.682 235.531V236.698C246.682 238.239 246.166 239.255 245.14 239.739C245.734 239.989 246.146 240.395 246.37 240.948C246.588 241.489 246.703 242.151 246.703 242.927V245.239C246.703 245.604 246.713 245.921 246.745 246.198C246.771 246.479 246.838 246.76 246.953 247.052H244.557ZM241.995 234.218V238.823H242.911C243.354 238.823 243.703 238.713 243.953 238.489C244.203 238.255 244.328 237.838 244.328 237.239V235.76C244.328 235.218 244.229 234.833 244.036 234.593C243.838 234.343 243.536 234.218 243.12 234.218H241.995Z" fill="#707070"/>
<path d="M251.551 232.093H253.905V247.052H251.551V232.093Z" fill="#707070"/>
<path d="M257.715 236.218V247.052H255.59V232.093H258.548L260.965 241.052V232.093H263.048V247.052H260.631L257.715 236.218Z" fill="#707070"/>
<path d="M264.054 232.093H271.325V234.218H268.867V247.052H266.513V234.218H264.054V232.093Z" fill="#707070"/>
<path d="M274.706 238.385H277.935V240.531H274.706V244.906H278.768V247.052H272.351V232.093H278.768V234.218H274.706V238.385Z" fill="#707070"/>
<path d="M280.219 232.093H282.573V244.906H286.448V247.052H280.219V232.093Z" fill="#707070"/>
<path d="M287.469 232.093H289.823V244.906H293.698V247.052H287.469V232.093Z" fill="#707070"/>
<path d="M294.715 232.093H297.069V247.052H294.715V232.093Z" fill="#707070"/>
<path d="M302.298 238.719H305.59V243.469C305.59 244.677 305.288 245.61 304.694 246.261C304.11 246.901 303.241 247.219 302.09 247.219C300.933 247.219 300.058 246.901 299.465 246.261C298.881 245.61 298.59 244.677 298.59 243.469V235.677C298.59 234.469 298.881 233.547 299.465 232.907C300.058 232.255 300.933 231.927 302.09 231.927C303.241 231.927 304.11 232.255 304.694 232.907C305.288 233.547 305.59 234.469 305.59 235.677V237.136H303.381V235.532C303.381 234.99 303.267 234.61 303.048 234.386C302.824 234.167 302.527 234.052 302.152 234.052C301.777 234.052 301.475 234.167 301.256 234.386C301.048 234.61 300.944 234.99 300.944 235.532V243.615C300.944 244.157 301.048 244.542 301.256 244.761C301.475 244.969 301.777 245.073 302.152 245.073C302.527 245.073 302.824 244.969 303.048 244.761C303.267 244.542 303.381 244.157 303.381 243.615V240.844H302.298V238.719Z" fill="#707070"/>
<path d="M309.471 238.385H312.7V240.531H309.471V244.906H313.534V247.052H307.117V232.093H313.534V234.218H309.471V238.385Z" fill="#707070"/>
<path d="M317.09 236.218V247.052H314.965V232.093H317.923L320.34 241.052V232.093H322.423V247.052H320.006L317.09 236.218Z" fill="#707070"/>
<path d="M330.926 241.469V243.469C330.926 244.677 330.623 245.61 330.03 246.261C329.446 246.901 328.577 247.219 327.426 247.219C326.269 247.219 325.394 246.901 324.801 246.261C324.217 245.61 323.926 244.677 323.926 243.469V235.677C323.926 234.469 324.217 233.547 324.801 232.907C325.394 232.255 326.269 231.927 327.426 231.927C328.577 231.927 329.446 232.255 330.03 232.907C330.623 233.547 330.926 234.469 330.926 235.677V237.136H328.717V235.532C328.717 234.99 328.603 234.61 328.384 234.386C328.16 234.167 327.863 234.052 327.488 234.052C327.113 234.052 326.811 234.167 326.592 234.386C326.384 234.61 326.28 234.99 326.28 235.532V243.615C326.28 244.157 326.384 244.542 326.592 244.761C326.811 244.969 327.113 245.073 327.488 245.073C327.863 245.073 328.16 244.969 328.384 244.761C328.603 244.542 328.717 244.157 328.717 243.615V241.469H330.926Z" fill="#707070"/>
<path d="M334.721 238.385H337.95V240.531H334.721V244.906H338.784V247.052H332.367V232.093H338.784V234.218H334.721V238.385Z" fill="#707070"/>
</g>
<defs>
<clipPath id="clip0_57_2">
<rect width="460" height="280" fill="white"/>
</clipPath>
</defs>
</svg>
